<mxfile host="app.diagrams.net" modified="2024-05-23T08:19:05.317Z" agent="Mozilla/5.0 (Windows NT 10.0; Win64; x64) AppleWebKit/537.36 (KHTML, like Gecko) Chrome/124.0.0.0 Safari/537.36" version="24.4.6" etag="ZVrCtYI-zuZnUFVlHytE" type="github">
  <diagram name="Страница — 1" id="PnewsQW9i2ohteJeQA2y">
    <mxGraphModel>
      <root>
        <mxCell id="0" />
        <mxCell id="1" parent="0" />
      </root>
    </mxGraphModel>
  </diagram>
</mxfile>
